<svg width="20" height="20" viewBox="0 0 20 20" fill="none" xmlns="http://www.w3.org/2000/svg">
<path d="M14.43 6.75853C14.2673 5.27623 12.9426 4.81793 11.2602 4.71633L11.2465 2.66431L9.94903 2.69873L9.96341 4.69986L8.93066 4.73744L8.91891 2.72111L7.62167 2.75628L7.63647 4.81527L6.81412 4.8472L6.81211 4.83969L5.01772 4.88568L5.02917 6.2257C5.02917 6.2257 5.98656 6.18819 5.9741 6.19797C6.50004 6.1883 6.66876 6.47725 6.72012 6.72519L6.74429 9.07235L6.88176 9.079L6.74088 9.08776L6.76648 12.3718C6.74846 12.5296 6.6517 12.7875 6.28252 12.7914C6.30223 12.8086 5.34664 12.8247 5.34664 12.8247L5.09812 14.323L6.78622 14.2773L7.71185 14.262L7.72526 16.3439L9.0223 16.308L9.00124 14.2507L10.0457 14.2317L10.0597 16.2845L11.3569 16.2493L11.3365 14.1693C13.5185 13.9912 15.0441 13.4238 15.2155 11.4373C15.3532 9.8383 14.5726 9.15369 13.3311 8.89048C14.0829 8.50786 14.5452 7.83884 14.423 6.76041L14.43 6.75853ZM12.6511 11.2605C12.6672 12.8182 9.90231 12.7088 9.0267 12.7389L9.00476 9.97805C9.88359 9.95998 12.6387 9.63563 12.649 11.2529L12.6511 11.2605ZM12.0129 7.38446C12.0288 8.79737 9.71922 8.69635 8.99193 8.7173L8.97093 6.21629C9.70624 6.194 12.0038 5.91254 12.0129 7.38446Z" fill="#5264CE"/>
</svg>
