<svg width="101" height="101" viewBox="0 0 101 101" fill="none" xmlns="http://www.w3.org/2000/svg">
<path d="M25.25 29.4584H46.2916C47.4077 29.4584 48.4782 29.9018 49.2674 30.691C50.0566 31.4802 50.5 32.5506 50.5 33.6667C50.5 34.7828 50.0566 35.8532 49.2674 36.6424C48.4782 37.4317 47.4077 37.875 46.2916 37.875H25.25C24.1338 37.875 23.0634 37.4317 22.2742 36.6424C21.485 35.8532 21.0416 34.7828 21.0416 33.6667C21.0416 32.5506 21.485 31.4802 22.2742 30.691C23.0634 29.9018 24.1338 29.4584 25.25 29.4584ZM54.7083 63.125H75.75C76.8661 63.125 77.9365 63.5684 78.7257 64.3576C79.5149 65.1468 79.9583 66.2173 79.9583 67.3334C79.9583 68.4495 79.5149 69.5199 78.7257 70.3091C77.9365 71.0983 76.8661 71.5417 75.75 71.5417H54.7083C53.5922 71.5417 52.5218 71.0983 51.7326 70.3091C50.9433 69.5199 50.5 68.4495 50.5 67.3334C50.5 66.2173 50.9433 65.1468 51.7326 64.3576C52.5218 63.5684 53.5922 63.125 54.7083 63.125ZM25.25 46.2917H75.75C76.8661 46.2917 77.9365 46.7351 78.7257 47.5243C79.5149 48.3135 79.9583 49.3839 79.9583 50.5C79.9583 51.6162 79.5149 52.6866 78.7257 53.4758C77.9365 54.265 76.8661 54.7084 75.75 54.7084H25.25C24.1338 54.7084 23.0634 54.265 22.2742 53.4758C21.485 52.6866 21.0416 51.6162 21.0416 50.5C21.0416 49.3839 21.485 48.3135 22.2742 47.5243C23.0634 46.7351 24.1338 46.2917 25.25 46.2917Z" fill="#545454"/>
</svg>
