<svg width="93" height="107" viewBox="0 0 93 107" fill="none" xmlns="http://www.w3.org/2000/svg">
<path d="M59.7857 33.4375H79.7143V20.0625H59.7857V33.4375ZM0 33.4375V16.7188C0 11.1807 4.46317 6.6875 9.96429 6.6875H83.0357C88.5368 6.6875 93 11.1807 93 16.7188V36.7812C93 42.3193 88.5368 46.8125 83.0357 46.8125H9.96429C4.46317 46.8125 0 42.3193 0 36.7812V33.4375ZM33.2143 86.9375H79.7143V73.5625H33.2143V86.9375ZM0 86.9375V70.2188C0 64.6807 4.46317 60.1875 9.96429 60.1875H83.0357C88.5368 60.1875 93 64.6807 93 70.2188V90.2812C93 95.8193 88.5368 100.312 83.0357 100.312H9.96429C4.46317 100.312 0 95.8193 0 90.2812V86.9375Z" fill="#545454"/>
</svg>
