<svg width="20" height="20" viewBox="0 0 20 20" fill="none" xmlns="http://www.w3.org/2000/svg">
<path d="M14.4302 6.75859C14.2676 5.27629 12.9428 4.81799 11.2605 4.71639L11.2467 2.66437L9.94926 2.69879L9.96363 4.69992L8.93088 4.7375L8.91914 2.72116L7.6219 2.75634L7.6367 4.81533L6.81435 4.84726L6.81234 4.83974L5.01794 4.88573L5.0294 6.22576C5.0294 6.22576 5.98678 6.18825 5.97432 6.19803C6.50026 6.18836 6.66899 6.47731 6.72034 6.72525L6.74451 9.07241L6.88198 9.07906L6.7411 9.08782L6.7667 12.3719C6.74868 12.5297 6.65192 12.7875 6.28275 12.7914C6.30245 12.8087 5.34687 12.8248 5.34687 12.8248L5.09835 14.323L6.78644 14.2774L7.71208 14.262L7.72548 16.344L9.02252 16.308L9.00147 14.2507L10.0459 14.2317L10.0599 16.2845L11.3571 16.2494L11.3367 14.1693C13.5187 13.9913 15.0444 13.4239 15.2157 11.4374C15.3534 9.83836 14.5728 9.15374 13.3313 8.89054C14.0831 8.50792 14.5455 7.8389 14.4232 6.76047L14.4302 6.75859ZM12.6513 11.2605C12.6675 12.8183 9.90253 12.7089 9.02692 12.7389L9.00498 9.97811C9.88381 9.96004 12.6389 9.63569 12.6493 11.253L12.6513 11.2605ZM12.0131 7.38451C12.029 8.79743 9.71945 8.69641 8.99216 8.71736L8.97116 6.21635C9.70646 6.19406 12.004 5.9126 12.0131 7.38451Z" fill="#5264CE"/>
</svg>
