<svg width="141" height="120" viewBox="0 0 141 120" fill="none" xmlns="http://www.w3.org/2000/svg">
<g filter="url(#filter0_d_413_2714)">
<mask id="path-1-outside-1_413_2714" maskUnits="userSpaceOnUse" x="-1.78244" y="-9.19095" width="143.779" height="129.718" fill="black">
<rect fill="white" x="-1.78244" y="-9.19095" width="143.779" height="129.718"/>
<path d="M27.7677 92.3584L38.9813 70.0377L16.9934 65.5767L23.4174 52.564L45.4053 57.025L52.0488 43.5523L30.0609 39.0913L36.5938 26.1638L58.5211 30.6125L68.8208 9.99838L83.0554 12.8864L72.6952 33.4882L87.5961 36.5114L97.8958 15.8972L112.13 18.7852L101.77 39.3871L123.758 43.8481L117.286 56.7879L95.3584 52.3392L88.5937 65.7873L110.582 70.2483L104.097 83.2486L82.1697 78.7999L71.0773 101.145L56.8427 98.2572L67.9351 75.9119L53.0947 72.9011L42.0024 95.2464L27.7677 92.3584ZM59.6399 59.913L74.4197 62.9116L81.1237 49.4512L66.2834 46.4403L59.6399 59.913Z"/>
</mask>
<path d="M27.7677 92.3584L19.8779 88.3947L14.693 98.7152L26.0121 101.012L27.7677 92.3584ZM38.9813 70.0377L46.8711 74.0014L52.056 63.6809L40.7369 61.3844L38.9813 70.0377ZM16.9934 65.5767L9.07604 61.6681L4.00012 71.95L15.2377 74.2299L16.9934 65.5767ZM23.4174 52.564L25.173 43.9107L18.5098 42.5589L15.5001 48.6554L23.4174 52.564ZM45.4053 57.025L43.6497 65.6783L50.3161 67.0308L53.3244 60.93L45.4053 57.025ZM52.0488 43.5523L59.9679 47.4573L65.0368 37.1779L53.8044 34.8991L52.0488 43.5523ZM30.0609 39.0913L22.1804 35.1089L16.9584 45.4425L28.3053 47.7446L30.0609 39.0913ZM36.5938 26.1638L38.3494 17.5106L31.7503 16.1717L28.7133 22.1814L36.5938 26.1638ZM58.5211 30.6125L56.7655 39.2658L63.3958 40.611L66.4196 34.559L58.5211 30.6125ZM68.8208 9.99838L70.5764 1.34512L63.9461 -6.01862e-05L60.9223 6.05194L68.8208 9.99838ZM83.0554 12.8864L90.9437 16.8532L96.1348 6.53052L84.811 4.2331L83.0554 12.8864ZM72.6952 33.4882L64.8069 29.5214L59.6158 39.8441L70.9395 42.1415L72.6952 33.4882ZM87.5961 36.5114L85.8404 45.1646L92.4707 46.5098L95.4946 40.4578L87.5961 36.5114ZM97.8958 15.8972L99.6514 7.24398L93.0211 5.89879L89.9972 11.9508L97.8958 15.8972ZM112.13 18.7852L120.019 22.7521L125.21 12.4294L113.886 10.132L112.13 18.7852ZM101.77 39.3871L93.8818 35.4202L88.6907 45.7429L100.014 48.0403L101.77 39.3871ZM123.758 43.8481L131.655 47.7979L136.812 37.4871L125.514 35.1948L123.758 43.8481ZM117.286 56.7879L115.53 65.4411L122.157 66.7857L125.182 60.7378L117.286 56.7879ZM95.3583 52.3392L97.114 43.6859L90.5022 42.3445L87.4705 48.3714L95.3583 52.3392ZM88.5937 65.7873L80.7059 61.8195L75.513 72.1428L86.8381 74.4405L88.5937 65.7873ZM110.582 70.2483L118.483 74.1894L123.623 63.8847L112.337 61.595L110.582 70.2483ZM104.097 83.2486L102.341 91.9019L108.976 93.248L111.998 87.1898L104.097 83.2486ZM82.1697 78.7999L83.9253 70.1467L77.2772 68.7979L74.261 74.874L82.1697 78.7999ZM71.0773 101.145L69.3217 109.798L75.9698 111.147L78.986 105.071L71.0773 101.145ZM56.8427 98.2572L48.934 94.3313L43.8239 104.625L55.0871 106.91L56.8427 98.2572ZM67.9351 75.9119L75.8438 79.8379L80.9539 69.5438L69.6907 67.2587L67.9351 75.9119ZM53.0947 72.9011L54.8504 64.2478L48.2022 62.899L45.186 68.9751L53.0947 72.9011ZM42.0024 95.2464L40.2467 103.9L46.8949 105.248L49.9111 99.1723L42.0024 95.2464ZM59.6399 59.913L51.7208 56.008L46.652 66.2874L57.8843 68.5662L59.6399 59.913ZM74.4197 62.9116L72.6641 71.5648L79.3031 72.9118L82.3232 66.848L74.4197 62.9116ZM81.1237 49.4512L89.0273 53.3876L94.158 43.0862L82.8794 40.7979L81.1237 49.4512ZM66.2834 46.4403L68.039 37.7871L61.3727 36.4346L58.3643 42.5353L66.2834 46.4403ZM27.7677 92.3584L35.6576 96.3221L46.8711 74.0014L38.9813 70.0377L31.0914 66.0739L19.8779 88.3947L27.7677 92.3584ZM38.9813 70.0377L40.7369 61.3844L18.749 56.9234L16.9934 65.5767L15.2377 74.2299L37.2257 78.6909L38.9813 70.0377ZM16.9934 65.5767L24.9107 69.4852L31.3347 56.4726L23.4174 52.564L15.5001 48.6554L9.07604 61.6681L16.9934 65.5767ZM23.4174 52.564L21.6618 61.2172L43.6497 65.6783L45.4053 57.025L47.1609 48.3717L25.173 43.9107L23.4174 52.564ZM45.4053 57.025L53.3244 60.93L59.9679 47.4573L52.0488 43.5523L44.1297 39.6474L37.4862 53.12L45.4053 57.025ZM52.0488 43.5523L53.8044 34.8991L31.8165 30.4381L30.0609 39.0913L28.3053 47.7446L50.2932 52.2056L52.0488 43.5523ZM30.0609 39.0913L37.9413 43.0737L44.4742 30.1462L36.5938 26.1638L28.7133 22.1814L22.1804 35.1089L30.0609 39.0913ZM36.5938 26.1638L34.8382 34.8171L56.7655 39.2658L58.5211 30.6125L60.2767 21.9593L38.3494 17.5106L36.5938 26.1638ZM58.5211 30.6125L66.4196 34.559L76.7193 13.9448L68.8208 9.99838L60.9223 6.05194L50.6226 26.6661L58.5211 30.6125ZM68.8208 9.99838L67.0652 18.6516L81.2998 21.5396L83.0554 12.8864L84.811 4.2331L70.5764 1.34512L68.8208 9.99838ZM83.0554 12.8864L75.1671 8.9195L64.8069 29.5214L72.6952 33.4882L80.5834 37.4551L90.9437 16.8532L83.0554 12.8864ZM72.6952 33.4882L70.9395 42.1415L85.8404 45.1646L87.5961 36.5114L89.3517 27.8581L74.4508 24.835L72.6952 33.4882ZM87.5961 36.5114L95.4946 40.4578L105.794 19.8437L97.8958 15.8972L89.9972 11.9508L79.6975 32.5649L87.5961 36.5114ZM97.8958 15.8972L96.1402 24.5505L110.375 27.4385L112.13 18.7852L113.886 10.132L99.6514 7.24398L97.8958 15.8972ZM112.13 18.7852L104.242 14.8183L93.8818 35.4202L101.77 39.3871L109.658 43.3539L120.019 22.7521L112.13 18.7852ZM101.77 39.3871L100.014 48.0403L122.002 52.5013L123.758 43.8481L125.514 35.1948L103.526 30.7338L101.77 39.3871ZM123.758 43.8481L115.861 39.8982L109.389 52.838L117.286 56.7879L125.182 60.7378L131.655 47.7979L123.758 43.8481ZM117.286 56.7879L119.041 48.1346L97.114 43.6859L95.3583 52.3392L93.6027 60.9924L115.53 65.4411L117.286 56.7879ZM95.3583 52.3392L87.4705 48.3714L80.7059 61.8195L88.5937 65.7873L96.4816 69.755L103.246 56.3069L95.3583 52.3392ZM88.5937 65.7873L86.8381 74.4405L108.826 78.9015L110.582 70.2483L112.337 61.595L90.3493 57.134L88.5937 65.7873ZM110.582 70.2483L102.68 66.3071L96.1959 79.3075L104.097 83.2486L111.998 87.1898L118.483 74.1894L110.582 70.2483ZM104.097 83.2486L105.853 74.5954L83.9253 70.1467L82.1697 78.7999L80.4141 87.4532L102.341 91.9019L104.097 83.2486ZM82.1697 78.7999L74.261 74.874L63.1686 97.2193L71.0773 101.145L78.986 105.071L90.0784 82.7259L82.1697 78.7999ZM71.0773 101.145L72.8329 92.492L58.5983 89.604L56.8427 98.2572L55.0871 106.91L69.3217 109.798L71.0773 101.145ZM56.8427 98.2572L64.7514 102.183L75.8438 79.8379L67.9351 75.9119L60.0264 71.986L48.934 94.3313L56.8427 98.2572ZM67.9351 75.9119L69.6907 67.2587L54.8504 64.2478L53.0947 72.9011L51.3391 81.5543L66.1795 84.5652L67.9351 75.9119ZM53.0947 72.9011L45.186 68.9751L34.0936 91.3204L42.0024 95.2464L49.9111 99.1723L61.0035 76.827L53.0947 72.9011ZM42.0024 95.2464L43.758 86.5931L29.5234 83.7051L27.7677 92.3584L26.0121 101.012L40.2467 103.9L42.0024 95.2464ZM59.6399 59.913L57.8843 68.5662L72.6641 71.5648L74.4197 62.9116L76.1753 54.2583L61.3955 51.2597L59.6399 59.913ZM74.4197 62.9116L82.3232 66.848L89.0273 53.3876L81.1237 49.4512L73.2202 45.5148L66.5162 58.9751L74.4197 62.9116ZM81.1237 49.4512L82.8794 40.7979L68.039 37.7871L66.2834 46.4403L64.5278 55.0936L79.3681 58.1044L81.1237 49.4512ZM66.2834 46.4403L58.3643 42.5353L51.7208 56.008L59.6399 59.913L67.559 63.818L74.2025 50.3453L66.2834 46.4403Z" fill="white" mask="url(#path-1-outside-1_413_2714)"/>
</g>
<defs>
<filter id="filter0_d_413_2714" x="0" y="0" width="140.812" height="119.147" filterUnits="userSpaceOnUse" color-interpolation-filters="sRGB">
<feFlood flood-opacity="0" result="BackgroundImageFix"/>
<feColorMatrix in="SourceAlpha" type="matrix" values="0 0 0 0 0 0 0 0 0 0 0 0 0 0 0 0 0 0 127 0" result="hardAlpha"/>
<feOffset dy="4"/>
<feGaussianBlur stdDeviation="2"/>
<feComposite in2="hardAlpha" operator="out"/>
<feColorMatrix type="matrix" values="0 0 0 0 0 0 0 0 0 0 0 0 0 0 0 0 0 0 0.25 0"/>
<feBlend mode="normal" in2="BackgroundImageFix" result="effect1_dropShadow_413_2714"/>
<feBlend mode="normal" in="SourceGraphic" in2="effect1_dropShadow_413_2714" result="shape"/>
</filter>
</defs>
</svg>
