<svg width="15" height="15" viewBox="0 0 15 15" fill="none" xmlns="http://www.w3.org/2000/svg">
<path d="M12.9437 2.28407C12.9437 2.28407 14.1578 1.81063 14.0562 2.96032C14.0228 3.43376 13.7193 5.09094 13.4831 6.88313L12.6737 12.1925C12.6737 12.1925 12.6062 12.9703 11.999 13.1056C11.3922 13.2406 10.4815 12.6322 10.3128 12.4969C10.1778 12.3953 7.78341 10.8734 6.94028 10.1297C6.70403 9.92657 6.43403 9.52094 6.97403 9.0475L10.5153 5.66563C10.92 5.25938 11.3247 4.31251 9.63841 5.4625L4.91653 8.675C4.91653 8.675 4.37685 9.01344 3.36528 8.70907L1.17278 8.03251C1.17278 8.03251 0.363407 7.52532 1.74622 7.01813C5.11903 5.42876 9.26747 3.80563 12.9434 2.28376" fill="white"/>
</svg>
