<svg width="26" height="26" viewBox="0 0 26 26" fill="none" xmlns="http://www.w3.org/2000/svg">
<path d="M6.50002 7.58337H11.9167C12.204 7.58337 12.4796 7.69751 12.6827 7.90067C12.8859 8.10384 13 8.37939 13 8.66671C13 8.95403 12.8859 9.22958 12.6827 9.43274C12.4796 9.6359 12.204 9.75004 11.9167 9.75004H6.50002C6.2127 9.75004 5.93715 9.6359 5.73399 9.43274C5.53082 9.22958 5.41669 8.95403 5.41669 8.66671C5.41669 8.37939 5.53082 8.10384 5.73399 7.90067C5.93715 7.69751 6.2127 7.58337 6.50002 7.58337ZM14.0834 16.25H19.5C19.7873 16.25 20.0629 16.3642 20.2661 16.5673C20.4692 16.7705 20.5834 17.0461 20.5834 17.3334C20.5834 17.6207 20.4692 17.8962 20.2661 18.0994C20.0629 18.3026 19.7873 18.4167 19.5 18.4167H14.0834C13.796 18.4167 13.5205 18.3026 13.3173 18.0994C13.1142 17.8962 13 17.6207 13 17.3334C13 17.0461 13.1142 16.7705 13.3173 16.5673C13.5205 16.3642 13.796 16.25 14.0834 16.25ZM6.50002 11.9167H19.5C19.7873 11.9167 20.0629 12.0308 20.2661 12.234C20.4692 12.4372 20.5834 12.7127 20.5834 13C20.5834 13.2874 20.4692 13.5629 20.2661 13.7661C20.0629 13.9692 19.7873 14.0834 19.5 14.0834H6.50002C6.2127 14.0834 5.93715 13.9692 5.73399 13.7661C5.53082 13.5629 5.41669 13.2874 5.41669 13C5.41669 12.7127 5.53082 12.4372 5.73399 12.234C5.93715 12.0308 6.2127 11.9167 6.50002 11.9167Z" fill="#545454"/>
</svg>
