<svg width="23" height="26" viewBox="0 0 23 26" fill="none" xmlns="http://www.w3.org/2000/svg">
<g clip-path="url(#clip0_155_1170)">
<path d="M14.7857 8.125H19.7143V4.875H14.7857V8.125ZM0 8.125V4.0625C0 2.7168 1.10379 1.625 2.46429 1.625H20.5357C21.8962 1.625 23 2.7168 23 4.0625V8.9375C23 10.2832 21.8962 11.375 20.5357 11.375H2.46429C1.10379 11.375 0 10.2832 0 8.9375V8.125ZM8.21429 21.125H19.7143V17.875H8.21429V21.125ZM0 21.125V17.0625C0 15.7168 1.10379 14.625 2.46429 14.625H20.5357C21.8962 14.625 23 15.7168 23 17.0625V21.9375C23 23.2832 21.8962 24.375 20.5357 24.375H2.46429C1.10379 24.375 0 23.2832 0 21.9375V21.125Z" fill="#545454"/>
</g>
<defs>
<clipPath id="clip0_155_1170">
<rect width="23" height="26" fill="white"/>
</clipPath>
</defs>
</svg>
