<svg width="15" height="15" viewBox="0 0 15 15" fill="none" xmlns="http://www.w3.org/2000/svg">
<path d="M7.25 8.54688L8.4375 9.26562C8.55208 9.33854 8.66667 9.33604 8.78125 9.25812C8.89583 9.18021 8.9375 9.07333 8.90625 8.9375L8.59375 7.57812L9.65625 6.65625C9.76042 6.5625 9.79167 6.45063 9.75 6.32063C9.70833 6.19063 9.61458 6.12021 9.46875 6.10938L8.07813 6L7.53125 4.71875C7.47917 4.59375 7.38542 4.53125 7.25 4.53125C7.11458 4.53125 7.02083 4.59375 6.96875 4.71875L6.42188 6L5.03125 6.10938C4.88542 6.11979 4.79167 6.19021 4.75 6.32063C4.70833 6.45104 4.73958 6.56292 4.84375 6.65625L5.90625 7.57812L5.59375 8.9375C5.5625 9.07292 5.60417 9.17979 5.71875 9.25812C5.83333 9.33646 5.94792 9.33896 6.0625 9.26562L7.25 8.54688ZM3.5 12H2.5729C2.25 12 1.81736 12 1.3825 12C1.08787 12 1.33718 12 1 12V3.25C1 2.90625 1.1225 2.61208 1.3675 2.3675C1.6125 2.12292 1.90667 2.00042 2.25 2H12.25C12.5938 2 12.8881 2.1225 13.1331 2.3675C13.3781 2.6125 13.5004 2.90667 13.5 3.25V10.75C13.5 11.0938 13.3777 11.3881 13.1331 11.6331C12.8885 11.8781 12.5942 12.0004 12.25 12H3.5ZM2.96875 10.75H12.25V3.25H2.25V10.75H2.96875Z" fill="white"/>
</svg>
