<svg width="16" height="16" viewBox="0 0 16 16" fill="none" xmlns="http://www.w3.org/2000/svg">
<path d="M3.75725 3.21863C3.82696 3.28792 3.88227 3.3702 3.92 3.46077C3.95773 3.55134 3.97715 3.64842 3.97715 3.74646C3.97715 3.84451 3.95773 3.94159 3.92 4.03216C3.88227 4.12273 3.82696 4.20501 3.75725 4.27429C2.63215 5.39397 2.00009 6.91248 2.00009 8.49581C2.00009 10.0791 2.63215 11.5976 3.75725 12.7173C3.82886 12.7861 3.88598 12.8685 3.92528 12.9595C3.96457 13.0505 3.98526 13.1484 3.98612 13.2475C3.98699 13.3465 3.96802 13.4448 3.93032 13.5365C3.89262 13.6281 3.83694 13.7114 3.76654 13.7815C3.69615 13.8515 3.61243 13.9069 3.52028 13.9444C3.42814 13.982 3.32941 14.0008 3.22985 14C3.1303 13.9991 3.03191 13.9785 2.94043 13.9394C2.84896 13.9003 2.76622 13.8435 2.69706 13.7722C-0.232352 10.8582 -0.232352 6.1327 2.69706 3.21863C2.83766 3.07877 3.02834 3.0002 3.22715 3.0002C3.42597 3.0002 3.61665 3.07877 3.75725 3.21863ZM13.3035 3.21863C16.2322 6.13345 16.2322 10.8582 13.3035 13.7722C13.1629 13.9122 12.9722 13.9909 12.7733 13.991C12.5744 13.9911 12.3836 13.9125 12.2429 13.7726C12.1022 13.6327 12.0232 13.443 12.0231 13.245C12.023 13.0471 12.102 12.8573 12.2426 12.7173C13.3677 11.5976 13.9997 10.0791 13.9997 8.49581C13.9997 6.91248 13.3677 5.39397 12.2426 4.27429C12.1019 4.1343 12.0228 3.94444 12.0228 3.74646C12.0228 3.54849 12.1019 3.35862 12.2426 3.21863C12.3833 3.07865 12.5741 3 12.773 3C12.972 3 13.1628 3.07865 13.3035 3.21863ZM5.98186 5.36278C6.12242 5.50268 6.20139 5.69241 6.20139 5.89024C6.20139 6.08806 6.12242 6.27779 5.98186 6.41769C5.7089 6.68926 5.49238 7.01167 5.34466 7.36651C5.19693 7.72135 5.1209 8.10166 5.1209 8.48574C5.1209 8.86982 5.19693 9.25013 5.34466 9.60497C5.49238 9.95981 5.7089 10.2822 5.98186 10.5538C6.05148 10.6231 6.10669 10.7054 6.14434 10.7959C6.182 10.8865 6.20136 10.9835 6.20132 11.0815C6.20129 11.1795 6.18186 11.2765 6.14414 11.367C6.10642 11.4576 6.05115 11.5398 5.98149 11.6091C5.91182 11.6783 5.82913 11.7333 5.73813 11.7707C5.64713 11.8082 5.54961 11.8275 5.45112 11.8274C5.35264 11.8274 5.25513 11.8081 5.16416 11.7705C5.07318 11.733 4.99053 11.678 4.92092 11.6087C4.08853 10.7804 3.6209 9.65707 3.6209 8.48574C3.6209 7.31441 4.08853 6.19105 4.92092 5.36278C4.99055 5.29341 5.07324 5.23839 5.16427 5.20084C5.25529 5.1633 5.35286 5.14397 5.45139 5.14397C5.54992 5.14397 5.64749 5.1633 5.73851 5.20084C5.82953 5.23839 5.91223 5.29341 5.98186 5.36278ZM11.1989 5.36278C12.0312 6.19105 12.4989 7.31441 12.4989 8.48574C12.4989 9.65707 12.0312 10.7804 11.1989 11.6087C11.0575 11.7446 10.8681 11.8198 10.6715 11.8181C10.4749 11.8164 10.2868 11.7379 10.1478 11.5996C10.0088 11.4613 9.92993 11.2742 9.92822 11.0786C9.92651 10.8829 10.0021 10.6945 10.1387 10.5538C10.4116 10.2822 10.6281 9.95981 10.7759 9.60497C10.9236 9.25013 10.9996 8.86982 10.9996 8.48574C10.9996 8.10166 10.9236 7.72135 10.7759 7.36651C10.6281 7.01167 10.4116 6.68926 10.1387 6.41769C10.0021 6.27698 9.92651 6.08853 9.92822 5.89292C9.92993 5.69731 10.0088 5.51019 10.1478 5.37187C10.2868 5.23354 10.4749 5.15508 10.6715 5.15338C10.8681 5.15168 11.0575 5.22688 11.1989 5.36278ZM8.06026 7.42933C8.35855 7.42933 8.64461 7.54724 8.85553 7.7571C9.06645 7.96697 9.18494 8.25161 9.18494 8.54841C9.18494 8.8452 9.06645 9.12984 8.85553 9.33971C8.64461 9.54958 8.35855 9.66748 8.06026 9.66748C7.76198 9.66748 7.47591 9.54958 7.265 9.33971C7.05408 9.12984 6.93559 8.8452 6.93559 8.54841C6.93559 8.25161 7.05408 7.96697 7.265 7.7571C7.47591 7.54724 7.76198 7.42933 8.06026 7.42933Z" fill="white"/>
</svg>
