<svg width="16" height="16" viewBox="0 0 16 16" fill="none" xmlns="http://www.w3.org/2000/svg">
<path d="M1.33337 2.33337H14.6667M1.33337 7.66671H5.00004M1.33337 13H5.00004" stroke="white" stroke-width="1.33333" stroke-linecap="round"/>
<path d="M10.5 11.3333C11.2514 11.3333 11.9721 11.0348 12.5034 10.5034C13.0348 9.97208 13.3333 9.25141 13.3333 8.49996C13.3333 7.74851 13.0348 7.02784 12.5034 6.49649C11.9721 5.96514 11.2514 5.66663 10.5 5.66663C9.74851 5.66663 9.02784 5.96514 8.49649 6.49649C7.96514 7.02784 7.66663 7.74851 7.66663 8.49996C7.66663 9.25141 7.96514 9.97208 8.49649 10.5034C9.02784 11.0348 9.74851 11.3333 10.5 11.3333Z" stroke="white" stroke-width="1.33333"/>
<path d="M12.3334 10.6666L14.6667 13.0166" stroke="white" stroke-width="1.33333" stroke-linecap="round"/>
</svg>
